<svg width="22" height="22" viewBox="0 0 22 22" fill="none" xmlns="http://www.w3.org/2000/svg">
<g id="61f3fd40cb30a0e07f76d7fc_hand-coin-fill%201.svg">
<path id="Vector" d="M8.71227 10.6407H10.5723C11.5953 10.6407 12.5764 11.047 13.2997 11.7704C14.023 12.4937 14.4294 13.4748 14.4294 14.4978H8.42855L8.42941 15.3549H15.2866V14.4978C15.2838 13.5858 15.0203 12.6935 14.5271 11.9264H17.0008C17.8111 11.9262 18.6047 12.1556 19.2898 12.5882C19.975 13.0207 20.5234 13.6385 20.8717 14.3701C18.8446 17.0452 15.5626 18.7835 11.858 18.7835C9.49141 18.7835 7.48655 18.2778 5.85798 17.3907V9.41579C6.90079 9.56519 7.88553 9.98777 8.71227 10.6407ZM5.00084 17.0692C5.00084 17.2965 4.91053 17.5146 4.74979 17.6753C4.58904 17.8361 4.37103 17.9264 4.14369 17.9264H2.42941C2.20208 17.9264 1.98406 17.8361 1.82331 17.6753C1.66257 17.5146 1.57227 17.2965 1.57227 17.0692V9.35494C1.57227 9.12762 1.66257 8.90957 1.82331 8.74885C1.98406 8.58811 2.20208 8.4978 2.42941 8.4978H4.14369C4.37103 8.4978 4.58904 8.58811 4.74979 8.74885C4.91053 8.90957 5.00084 9.12762 5.00084 9.35494V17.0692ZM16.1437 5.06923C16.8256 5.06923 17.4797 5.34015 17.962 5.82239C18.4442 6.30462 18.7151 6.95867 18.7151 7.64066C18.7151 8.32265 18.4442 8.97668 17.962 9.45891C17.4797 9.94114 16.8256 10.2121 16.1437 10.2121C15.4618 10.2121 14.8077 9.94114 14.3254 9.45891C13.8432 8.97668 13.5723 8.32265 13.5723 7.64066C13.5723 6.95867 13.8432 6.30462 14.3254 5.82239C14.8077 5.34015 15.4618 5.06923 16.1437 5.06923ZM10.1437 2.4978C10.8256 2.4978 11.4797 2.76872 11.962 3.25096C12.4442 3.73319 12.7151 4.38725 12.7151 5.06923C12.7151 5.75122 12.4442 6.40527 11.962 6.88751C11.4797 7.36974 10.8256 7.64066 10.1437 7.64066C9.46175 7.64066 8.80766 7.36974 8.32542 6.88751C7.84318 6.40527 7.57227 5.75122 7.57227 5.06923C7.57227 4.38725 7.84318 3.73319 8.32542 3.25096C8.80766 2.76872 9.46175 2.4978 10.1437 2.4978Z" fill="black"/>
</g>
</svg>
