<svg width="22" height="22" viewBox="0 0 22 22" fill="none" xmlns="http://www.w3.org/2000/svg">
<g id="61f3fd404cd2f77d7d3afe5a_money-dollar-circle-fill%201.svg">
<path id="Vector" d="M11.0011 19.6406C6.26712 19.6406 2.42969 15.8032 2.42969 11.0692C2.42969 6.33523 6.26712 2.4978 11.0011 2.4978C15.7351 2.4978 19.5725 6.33523 19.5725 11.0692C19.5725 15.8032 15.7351 19.6406 11.0011 19.6406ZM8.00112 12.7835V14.4978H10.144V16.2121H11.8583V14.4978H12.7154C13.2837 14.4978 13.8287 14.272 14.2307 13.8702C14.6325 13.4683 14.8583 12.9233 14.8583 12.3549C14.8583 11.7867 14.6325 11.2416 14.2307 10.8397C13.8287 10.4379 13.2837 10.2121 12.7154 10.2121H9.28683C9.17316 10.2121 9.06415 10.1669 8.98379 10.0866C8.90341 10.0062 8.85826 9.89717 8.85826 9.78351C8.85826 9.66985 8.90341 9.56082 8.98379 9.48051C9.06415 9.40011 9.17316 9.35494 9.28683 9.35494H14.0011V7.64066H11.8583V5.92637H10.144V7.64066H9.28683C8.71851 7.64066 8.17346 7.86642 7.7716 8.26829C7.36974 8.67015 7.14397 9.21522 7.14397 9.78351C7.14397 10.3519 7.36974 10.8969 7.7716 11.2988C8.17346 11.7006 8.71851 11.9264 9.28683 11.9264H12.7154C12.8291 11.9264 12.9381 11.9715 13.0185 12.0519C13.0988 12.1323 13.144 12.2413 13.144 12.3549C13.144 12.4686 13.0988 12.5776 13.0185 12.658C12.9381 12.7383 12.8291 12.7835 12.7154 12.7835H8.00112Z" fill="black"/>
</g>
</svg>
