<svg width="22" height="22" viewBox="0 0 22 22" fill="none" xmlns="http://www.w3.org/2000/svg">
<g id="61f3fd40a7235b23421dca3d_calendar-fill%201.svg">
<path id="Vector" d="M2.42773 10.2122H19.5706V17.9265C19.5706 18.1538 19.4802 18.3718 19.3195 18.5325C19.1588 18.6933 18.9408 18.7836 18.7134 18.7836H3.28488C3.05755 18.7836 2.83953 18.6933 2.67878 18.5325C2.51804 18.3718 2.42773 18.1538 2.42773 17.9265V10.2122ZM15.2849 3.35503H18.7134C18.9408 3.35503 19.1588 3.44534 19.3195 3.60608C19.4802 3.76683 19.5706 3.98484 19.5706 4.21218V8.49789H2.42773V4.21218C2.42773 3.98484 2.51804 3.76683 2.67878 3.60608C2.83953 3.44534 3.05755 3.35503 3.28488 3.35503H6.71345V1.64075H8.42773V3.35503H13.5706V1.64075H15.2849V3.35503Z" fill="black"/>
</g>
</svg>
