<svg width="22" height="22" viewBox="0 0 22 22" fill="none" xmlns="http://www.w3.org/2000/svg">
<g id="61f3fd40a6f33897da433b89_user-3-fill%201.svg">
<path id="Vector" d="M17.8569 19.6407H4.14258V17.9265C4.14258 16.7898 4.5941 15.6998 5.39784 14.896C6.20156 14.0923 7.29165 13.6407 8.42829 13.6407H13.5711C14.7078 13.6407 15.7979 14.0923 16.6016 14.896C17.4053 15.6998 17.8569 16.7898 17.8569 17.9265V19.6407ZM10.9997 11.9265C10.3244 11.9265 9.65564 11.7934 9.03164 11.535C8.40768 11.2766 7.84073 10.8977 7.36317 10.4202C6.88562 9.9426 6.50679 9.37568 6.24834 8.75169C5.98988 8.12773 5.85686 7.45897 5.85686 6.7836C5.85686 6.10824 5.98988 5.43948 6.24834 4.81552C6.50679 4.19156 6.88562 3.62461 7.36317 3.14706C7.84073 2.6695 8.40768 2.29068 9.03164 2.03222C9.65564 1.77378 10.3244 1.64075 10.9997 1.64075C12.3637 1.64075 13.6718 2.18258 14.6362 3.14706C15.6008 4.11153 16.1426 5.41963 16.1426 6.7836C16.1426 8.14758 15.6008 9.45565 14.6362 10.4202C13.6718 11.3847 12.3637 11.9265 10.9997 11.9265Z" fill="black"/>
</g>
</svg>
